<?xml version="1.0" encoding="UTF-8"?>
<svg width="50px" height="108px" viewBox="0 0 50 108" version="1.1" xmlns="http://www.w3.org/2000/svg" xmlns:xlink="http://www.w3.org/1999/xlink">
    <!-- Generator: Sketch 52.4 (67378) - http://www.bohemiancoding.com/sketch -->
    <title>charge</title>
    <desc>Created with Sketch.</desc>
    <g id="Page-1" stroke="none" stroke-width="1" fill="none" fill-rule="evenodd">
        <g id="styletile" transform="translate(-590.000000, -356.000000)" fill="#000000">
            <g id="charge" transform="translate(590.000000, 356.000000)">
                <path d="M9.61626506,104.649799 C9.61626506,106.239759 10.9066265,107.53012 12.4965863,107.53012 L39.3791165,107.53012 C40.9690763,107.53012 42.2594378,106.239759 42.2594378,104.649799 L42.2594378,101.769478 L9.61626506,101.769478 L9.61626506,104.649799 Z" id="Path"></path>
                <path d="M21.1373494,9.60080321 L30.7381526,9.60080321 L38.3168675,9.60080321 C38.3821285,9.30120482 38.4188755,8.99216867 38.4188755,8.6753012 L38.4188755,8.60441767 C38.4188755,5.97369478 36.0913655,3.84036145 33.2188755,3.84036145 L30.7381526,3.84036145 L30.7381526,-7.10542736e-15 L21.1373494,-7.10542736e-15 L21.1373494,3.84036145 L18.4759036,3.84036145 C15.6052209,3.84036145 13.4566265,5.97369478 13.4566265,8.60441767 L13.4566265,8.67550201 C13.4566265,8.99236948 13.4911647,9.30140562 13.5508032,9.60100402 L21.1373494,9.60080321 Z" id="Path"></path>
                <path d="M44.5461847,13.4413655 L44.1795181,13.4413655 L33.2190763,13.4413655 L18.4759036,13.4413655 L7.32931727,13.4413655 C4.86385542,13.4413655 2.27931727,14.3917671 0.944779116,16.162249 C0.378313253,16.9110442 0.0152610442,17.7925703 0.0152610442,18.8351406 L0.0152610442,28.7586345 L0.0152610442,30.697992 L0.0152610442,32.6393574 L0.0152610442,76.5309237 L0.0152610442,78.4722892 L0.0152610442,80.4116466 L0.0152610442,90.6192771 C0.0152610442,90.9512048 0.0787148594,91.2875502 0.144176707,91.6216867 C0.764457831,94.8110442 4.15341365,97.9295181 7.32951807,97.9295181 L9.79317269,97.9295181 L42.0829317,97.9295181 L44.5467871,97.9295181 C48.0566265,97.9295181 49.9405622,94.1257028 49.9405622,90.615261 L49.9405622,18.8351406 C49.9399598,15.3248996 48.0562249,13.4413655 44.5461847,13.4413655 Z M29.2271084,48.0044177 L36.8905622,48.0044177 L34.5134538,51.0556225 L23.6106426,65.0574297 L22.2568273,66.7951807 L19.4188755,70.4379518 L24.1405622,53.7650602 L22.4124498,53.7650602 L20.4923695,53.7650602 L18.5722892,53.7650602 L13.065261,53.7650602 L17.6008032,47.9411647 L18.9931727,46.1534137 L20.3736948,44.3791165 L24.0873494,39.6094378 L30.5351406,31.3295181 L26.2929719,46.3108434 L25.8148594,48.0044177 L29.2271084,48.0044177 Z" id="Shape" fill-rule="nonzero"></path>
            </g>
        </g>
    </g>
</svg>