<?xml version="1.0" encoding="UTF-8"?>
<svg width="55px" height="91px" viewBox="0 0 55 91" version="1.1" xmlns="http://www.w3.org/2000/svg" xmlns:xlink="http://www.w3.org/1999/xlink">
    <!-- Generator: Sketch 52.4 (67378) - http://www.bohemiancoding.com/sketch -->
    <title>facebook-logo</title>
    <desc>Created with Sketch.</desc>
    <g id="Page-1" stroke="none" stroke-width="1" fill="none" fill-rule="evenodd">
        <g id="Desktop-HD" transform="translate(-393.000000, -578.000000)" fill="#000000">
            <g id="social-network" transform="translate(271.000000, 578.000000)">
                <g id="facebook-logo" transform="translate(122.448980, 0.000000)">
                    <path d="M52.0755872,0.01890293 L39.116211,0 C24.5567963,0 15.1478629,8.77568523 15.1478629,22.3583855 L15.1478629,32.6670984 L2.11778976,32.6670984 C0.991836735,32.6670984 0.0800539084,33.496937 0.0800539084,34.5205307 L0.0800539084,49.4566808 C0.0800539084,50.4802744 0.992876396,51.3091679 2.11778976,51.3091679 L15.1478629,51.3091679 L15.1478629,88.9978297 C15.1478629,90.0214233 16.0596457,90.8503168 17.1855988,90.8503168 L34.1861379,90.8503168 C35.3120909,90.8503168 36.2238737,90.0204782 36.2238737,88.9978297 L36.2238737,51.3091679 L51.4590682,51.3091679 C52.5850212,51.3091679 53.496804,50.4802744 53.496804,49.4566808 L53.503042,34.5205307 C53.503042,34.0290545 53.2878321,33.5583715 52.9062765,33.2105576 C52.5247208,32.8627437 52.0048903,32.6670984 51.4642665,32.6670984 L36.2238737,32.6670984 L36.2238737,23.9282739 C36.2238737,19.7280428 37.3248749,17.5957923 43.3434732,17.5957923 L52.0735079,17.5929569 C53.1984213,17.5929569 54.1102041,16.7631183 54.1102041,15.7404698 L54.1102041,1.87139007 C54.1102041,0.849686701 53.1994609,0.0207932229 52.0755872,0.01890293 Z" id="Path"></path>
                </g>
            </g>
        </g>
    </g>
</svg>