<?xml version="1.0" encoding="UTF-8"?>
<svg width="92px" height="92px" viewBox="0 0 92 92" version="1.1" xmlns="http://www.w3.org/2000/svg" xmlns:xlink="http://www.w3.org/1999/xlink">
    <!-- Generator: Sketch 52.4 (67378) - http://www.bohemiancoding.com/sketch -->
    <title>instagram</title>
    <desc>Created with Sketch.</desc>
    <g id="Page-1" stroke="none" stroke-width="1" fill="none" fill-rule="evenodd">
        <g id="Desktop-HD" transform="translate(-604.000000, -578.000000)" fill="#000000" fill-rule="nonzero">
            <g id="instagram" transform="translate(604.000000, 578.000000)">
                <path d="M45.92,27.265 C35.5341875,27.265 27.085625,35.7135625 27.085625,46.099375 C27.085625,56.4851875 35.5341875,64.93375 45.92,64.93375 C56.3058125,64.93375 64.754375,56.4851875 64.754375,46.099375 C64.754375,35.7135625 56.3058125,27.265 45.92,27.265 Z M45.92,27.265 C35.5341875,27.265 27.085625,35.7135625 27.085625,46.099375 C27.085625,56.4851875 35.5341875,64.93375 45.92,64.93375 C56.3058125,64.93375 64.754375,56.4851875 64.754375,46.099375 C64.754375,35.7135625 56.3058125,27.265 45.92,27.265 Z M78.386875,0 L13.453125,0 C6.027,0 0,6.027 0,13.453125 L0,78.386875 C0,85.813 6.027,91.84 13.453125,91.84 L78.386875,91.84 C85.813,91.84 91.84,85.813 91.84,78.386875 L91.84,13.453125 C91.84,6.027 85.813,0 78.386875,0 Z M45.92,70.315 C32.5746794,70.315 21.704375,59.4446956 21.704375,46.099375 C21.704375,32.7536956 32.5746794,21.88375 45.92,21.88375 C59.2653206,21.88375 70.135625,32.7536956 70.135625,46.099375 C70.135625,59.4446956 59.2653206,70.315 45.92,70.315 Z M75.516875,21.88375 C72.5571875,21.88375 70.135625,19.4621875 70.135625,16.5025 C70.135625,13.5428125 72.5571875,11.12125 75.516875,11.12125 C78.4765625,11.12125 80.898125,13.5428125 80.898125,16.5025 C80.898125,19.4621875 78.4765625,21.88375 75.516875,21.88375 Z M45.92,27.265 C35.5341875,27.265 27.085625,35.7135625 27.085625,46.099375 C27.085625,56.4851875 35.5341875,64.93375 45.92,64.93375 C56.3058125,64.93375 64.754375,56.4851875 64.754375,46.099375 C64.754375,35.7135625 56.3058125,27.265 45.92,27.265 Z M45.92,27.265 C35.5341875,27.265 27.085625,35.7135625 27.085625,46.099375 C27.085625,56.4851875 35.5341875,64.93375 45.92,64.93375 C56.3058125,64.93375 64.754375,56.4851875 64.754375,46.099375 C64.754375,35.7135625 56.3058125,27.265 45.92,27.265 Z M45.92,27.265 C35.5341875,27.265 27.085625,35.7135625 27.085625,46.099375 C27.085625,56.4851875 35.5341875,64.93375 45.92,64.93375 C56.3058125,64.93375 64.754375,56.4851875 64.754375,46.099375 C64.754375,35.7135625 56.3058125,27.265 45.92,27.265 Z" id="Shape"></path>
            </g>
        </g>
    </g>
</svg>