<?xml version="1.0" encoding="UTF-8"?>
<svg width="92px" height="92px" viewBox="0 0 92 92" version="1.1" xmlns="http://www.w3.org/2000/svg" xmlns:xlink="http://www.w3.org/1999/xlink">
    <!-- Generator: Sketch 52.4 (67378) - http://www.bohemiancoding.com/sketch -->
    <title>linkedin</title>
    <desc>Created with Sketch.</desc>
    <g id="Page-1" stroke="none" stroke-width="1" fill="none" fill-rule="evenodd">
        <g id="Desktop-HD" transform="translate(-271.000000, -578.000000)" fill="#000000" fill-rule="nonzero">
            <g id="social-network" transform="translate(271.000000, 578.000000)">
                <g id="linkedin">
                    <path d="M83.5293568,0 L8.30737792,0 C3.71938776,0 0,3.71938776 0,8.30737792 L0,83.5291164 C0,88.1173469 3.71938776,91.8367347 8.30737792,91.8367347 L83.5291164,91.8367347 C88.1173469,91.8367347 91.8367347,88.1173469 91.8367347,83.5291164 L91.8367347,8.30737792 C91.8367347,3.71938776 88.1173469,0 83.5293568,0 Z M28.4181804,79.2978951 C28.4181804,80.6331339 27.3358532,81.7154611 26.0006144,81.7154611 L15.7096111,81.7154611 C14.3743723,81.7154611 13.2920451,80.6331339 13.2920451,79.2978951 L13.2920451,36.1584304 C13.2920451,34.8231916 14.3743723,33.7408644 15.7096111,33.7408644 L26.0006144,33.7408644 C27.3358532,33.7408644 28.4181804,34.8231916 28.4181804,36.1584304 L28.4181804,79.2978951 Z M20.8551127,29.6743242 C15.4557378,29.6743242 11.0785875,25.2971738 11.0785875,19.8977989 C11.0785875,14.498424 15.4557378,10.1212736 20.8551127,10.1212736 C26.2544877,10.1212736 30.631638,14.498424 30.631638,19.8977989 C30.631638,25.2971738 26.2547281,29.6743242 20.8551127,29.6743242 Z M82.1986858,79.4926274 C82.1986858,80.7201624 81.2033871,81.7154611 79.9758521,81.7154611 L68.9328454,81.7154611 C67.7053104,81.7154611 66.7100118,80.7201624 66.7100118,79.4926274 L66.7100118,59.2577733 C66.7100118,56.2391815 67.5954429,46.0301581 58.8214286,46.0301581 C52.0156534,46.0301581 50.6352174,53.0179239 50.3580244,56.1538359 L50.3580244,79.4926274 C50.3580244,80.7201624 49.3629661,81.7154611 48.1351907,81.7154611 L37.4547227,81.7154611 C36.2271877,81.7154611 35.2318891,80.7201624 35.2318891,79.4926274 L35.2318891,35.963698 C35.2318891,34.7361631 36.2271877,33.7408644 37.4547227,33.7408644 L48.1351907,33.7408644 C49.3627257,33.7408644 50.3580244,34.7361631 50.3580244,35.963698 L50.3580244,39.7273213 C52.8816113,35.9401378 56.632012,33.016989 64.6172401,33.016989 C82.2998985,33.016989 82.1986858,49.5370232 82.1986858,58.6139545 L82.1986858,79.4926274 Z" id="Shape"></path>
                </g>
            </g>
        </g>
    </g>
</svg>