<?xml version="1.0" encoding="UTF-8"?>
<svg width="92px" height="75px" viewBox="0 0 92 75" version="1.1" xmlns="http://www.w3.org/2000/svg" xmlns:xlink="http://www.w3.org/1999/xlink">
    <!-- Generator: Sketch 52.4 (67378) - http://www.bohemiancoding.com/sketch -->
    <title>twitter-logo-silhouette</title>
    <desc>Created with Sketch.</desc>
    <g id="Page-1" stroke="none" stroke-width="1" fill="none" fill-rule="evenodd">
        <g id="Desktop-HD" transform="translate(-479.000000, -587.000000)" fill="#000000">
            <g id="social-network" transform="translate(271.000000, 578.000000)">
                <g id="twitter-logo-silhouette" transform="translate(208.163265, 9.183673)">
                    <path d="M91.8367347,8.8922569 C88.4566327,10.390006 84.8298319,11.4057623 81.0192077,11.8592437 C84.910114,9.5292617 87.8885054,5.83358343 89.30012,1.44342737 C85.6503601,3.60114046 81.6216987,5.16791717 77.3290816,6.0172569 C73.8916567,2.3502401 69.0022509,0.0661764706 63.5790816,0.0661764706 C53.1748199,0.0661764706 44.7388956,8.50210084 44.7388956,18.9006603 C44.7388956,20.3754502 44.9053121,21.8158764 45.2267407,23.1932773 C29.5715786,22.4069628 15.6896759,14.9065126 6.39870948,3.50930372 C4.77460984,6.28691477 3.85069028,9.52340936 3.85069028,12.9782413 C3.85069028,19.5147059 7.17917167,25.2821128 12.2292917,28.6563625 C9.14180672,28.5531212 6.2379952,27.7037815 3.69582833,26.2920168 L3.69582833,26.5273109 C3.69582833,35.6518607 10.1920768,43.2671068 18.8058223,45.0003001 C17.2276411,45.42497 15.5634754,45.6602641 13.8418367,45.6602641 C12.6253001,45.6602641 11.4488295,45.5397659 10.2953181,45.3101741 C12.6940276,52.7992197 19.6494598,58.2451981 27.8903061,58.3945078 C21.4456783,63.4446279 13.3196279,66.4459784 4.49354742,66.4459784 C2.97283914,66.4459784 1.47493998,66.3541417 0.000150060024,66.1877251 C8.33853541,71.5420168 18.2378451,74.6638655 28.877401,74.6638655 C63.5334634,74.6638655 82.4770408,45.9587335 82.4770408,21.0642257 L82.4138655,18.6253001 C86.1152461,15.9852941 89.317377,12.6683673 91.8367347,8.8922569 Z" id="Path"></path>
                </g>
            </g>
        </g>
    </g>
</svg>